<?xml version="1.0" standalone="no"?>
<mlt LC_NUMERIC="C" version="7.24.0" title="Shotcut version 24.04.28" producer="main_bin">
  <profile description="automatic" width="478" height="850" progressive="1" sample_aspect_num="64" sample_aspect_den="64" display_aspect_num="239" display_aspect_den="425" frame_rate_num="100" frame_rate_den="3" colorspace="601"/>
  <chain id="chain0" out="00:00:08.730">
    <property name="length">00:00:08.760</property>
    <property name="eof">pause</property>
    <property name="resource">C:/Users/Noa/Desktop/projektni_dm/kinemagraf/kinemagraf.gif</property>
    <property name="mlt_service">avformat-novalidate</property>
    <property name="meta.media.nb_streams">1</property>
    <property name="meta.media.0.stream.type">video</property>
    <property name="meta.media.0.stream.frame_rate">33.3333</property>
    <property name="meta.media.0.stream.sample_aspect_ratio">0</property>
    <property name="meta.media.0.codec.width">478</property>
    <property name="meta.media.0.codec.height">850</property>
    <property name="meta.media.0.codec.rotate">0</property>
    <property name="meta.media.0.codec.pix_fmt">bgra</property>
    <property name="meta.media.0.codec.sample_aspect_ratio">1</property>
    <property name="meta.media.0.codec.colorspace">601</property>
    <property name="meta.media.0.codec.name">gif</property>
    <property name="meta.media.0.codec.long_name">GIF (Graphics Interchange Format)</property>
    <property name="meta.media.0.codec.bit_rate">0</property>
    <property name="seekable">1</property>
    <property name="meta.media.sample_aspect_num">64</property>
    <property name="meta.media.sample_aspect_den">64</property>
    <property name="audio_index">-1</property>
    <property name="video_index">0</property>
    <property name="creation_time">2024-06-10T08:58:24</property>
    <property name="vstream">0</property>
    <property name="meta.media.frame_rate_num">100</property>
    <property name="meta.media.frame_rate_den">3</property>
    <property name="meta.media.colorspace">601</property>
    <property name="meta.media.color_trc">2</property>
    <property name="meta.media.has_b_frames">0</property>
    <property name="meta.media.width">478</property>
    <property name="meta.media.height">850</property>
    <property name="meta.media.aspect_ratio">1</property>
    <property name="meta.media.color_range">mpeg</property>
    <property name="shotcut:skipConvert">1</property>
    <property name="xml">was here</property>
    <property name="shotcut:hash">f8d4e6a6767d2e83c17f0068dd1010e5</property>
  </chain>
  <chain id="chain1" in="00:00:07.740" out="00:00:29.040">
    <property name="length">00:00:36.930</property>
    <property name="eof">pause</property>
    <property name="resource">clip2.mp4</property>
    <property name="mlt_service">avformat-novalidate</property>
    <property name="meta.media.nb_streams">2</property>
    <property name="meta.media.0.stream.type">video</property>
    <property name="meta.media.0.stream.frame_rate">30.3031</property>
    <property name="meta.media.0.stream.sample_aspect_ratio">1</property>
    <property name="meta.media.0.codec.width">478</property>
    <property name="meta.media.0.codec.height">850</property>
    <property name="meta.media.0.codec.rotate">0</property>
    <property name="meta.media.0.codec.pix_fmt">yuv420p</property>
    <property name="meta.media.0.codec.sample_aspect_ratio">0</property>
    <property name="meta.media.0.codec.colorspace">601</property>
    <property name="meta.media.0.codec.color_trc">6</property>
    <property name="meta.media.0.codec.name">h264</property>
    <property name="meta.media.0.codec.long_name">H.264 / AVC / MPEG-4 AVC / MPEG-4 part 10</property>
    <property name="meta.media.0.codec.bit_rate">1270462</property>
    <property name="meta.attr.0.stream.vendor_id.markup">[0][0][0][0]</property>
    <property name="meta.media.1.stream.type">audio</property>
    <property name="meta.media.1.codec.sample_fmt">fltp</property>
    <property name="meta.media.1.codec.sample_rate">48000</property>
    <property name="meta.media.1.codec.channels">2</property>
    <property name="meta.media.1.codec.layout">stereo</property>
    <property name="meta.media.1.codec.name">aac</property>
    <property name="meta.media.1.codec.long_name">AAC (Advanced Audio Coding)</property>
    <property name="meta.media.1.codec.bit_rate">96000</property>
    <property name="meta.attr.1.stream.vendor_id.markup">[0][0][0][0]</property>
    <property name="meta.attr.major_brand.markup">mp42</property>
    <property name="meta.attr.minor_version.markup">0</property>
    <property name="meta.attr.compatible_brands.markup">mp42isom</property>
    <property name="seekable">1</property>
    <property name="meta.media.sample_aspect_num">1</property>
    <property name="meta.media.sample_aspect_den">1</property>
    <property name="audio_index">1</property>
    <property name="video_index">0</property>
    <property name="creation_time">2024-06-09T19:22:13</property>
    <property name="vstream">0</property>
    <property name="meta.media.frame_rate_num">50355000</property>
    <property name="meta.media.frame_rate_den">1661713</property>
    <property name="meta.media.colorspace">601</property>
    <property name="meta.media.color_trc">6</property>
    <property name="meta.media.has_b_frames">0</property>
    <property name="meta.media.width">478</property>
    <property name="meta.media.height">850</property>
    <property name="meta.media.aspect_ratio">1</property>
    <property name="meta.media.color_range">mpeg</property>
    <property name="astream">0</property>
    <property name="shotcut:skipConvert">1</property>
    <property name="xml">was here</property>
    <property name="shotcut:hash">bc0349ec00ab43827700f9253ce37756</property>
    <property name="meta.media.variable_frame_rate">1</property>
    <property name="meta.media.top_field_first">0</property>
    <property name="meta.media.progressive">1</property>
    <property name="ignore_points">1</property>
    <property name="shotcut:caption">clip2.mp4</property>
    <filter id="filter0" in="00:00:07.740" out="00:00:29.040">
      <property name="start">1</property>
      <property name="level">1</property>
      <property name="mlt_service">brightness</property>
      <property name="shotcut:filter">brightnessOpacity</property>
      <property name="alpha">1</property>
      <property name="opacity">1</property>
    </filter>
  </chain>
  <chain id="chain2" in="00:00:21.930" out="00:00:44.310">
    <property name="length">00:00:49.440</property>
    <property name="eof">pause</property>
    <property name="resource">clip3.mp4</property>
    <property name="mlt_service">avformat-novalidate</property>
    <property name="meta.media.nb_streams">2</property>
    <property name="meta.media.0.stream.type">video</property>
    <property name="meta.media.0.stream.frame_rate">30.3034</property>
    <property name="meta.media.0.stream.sample_aspect_ratio">1</property>
    <property name="meta.media.0.codec.width">478</property>
    <property name="meta.media.0.codec.height">850</property>
    <property name="meta.media.0.codec.rotate">0</property>
    <property name="meta.media.0.codec.pix_fmt">yuv420p</property>
    <property name="meta.media.0.codec.sample_aspect_ratio">0</property>
    <property name="meta.media.0.codec.colorspace">601</property>
    <property name="meta.media.0.codec.color_trc">6</property>
    <property name="meta.media.0.codec.name">h264</property>
    <property name="meta.media.0.codec.long_name">H.264 / AVC / MPEG-4 AVC / MPEG-4 part 10</property>
    <property name="meta.media.0.codec.bit_rate">1274437</property>
    <property name="meta.attr.0.stream.vendor_id.markup">[0][0][0][0]</property>
    <property name="meta.media.1.stream.type">audio</property>
    <property name="meta.media.1.codec.sample_fmt">fltp</property>
    <property name="meta.media.1.codec.sample_rate">48000</property>
    <property name="meta.media.1.codec.channels">2</property>
    <property name="meta.media.1.codec.layout">stereo</property>
    <property name="meta.media.1.codec.name">aac</property>
    <property name="meta.media.1.codec.long_name">AAC (Advanced Audio Coding)</property>
    <property name="meta.media.1.codec.bit_rate">96000</property>
    <property name="meta.attr.1.stream.vendor_id.markup">[0][0][0][0]</property>
    <property name="meta.attr.major_brand.markup">mp42</property>
    <property name="meta.attr.minor_version.markup">0</property>
    <property name="meta.attr.compatible_brands.markup">mp42isom</property>
    <property name="seekable">1</property>
    <property name="meta.media.sample_aspect_num">1</property>
    <property name="meta.media.sample_aspect_den">1</property>
    <property name="audio_index">1</property>
    <property name="video_index">0</property>
    <property name="creation_time">2024-06-09T19:21:09</property>
    <property name="vstream">0</property>
    <property name="meta.media.frame_rate_num">8426250</property>
    <property name="meta.media.frame_rate_den">278063</property>
    <property name="meta.media.colorspace">601</property>
    <property name="meta.media.color_trc">6</property>
    <property name="meta.media.has_b_frames">0</property>
    <property name="meta.media.width">478</property>
    <property name="meta.media.height">850</property>
    <property name="meta.media.aspect_ratio">1</property>
    <property name="meta.media.color_range">mpeg</property>
    <property name="astream">0</property>
    <property name="shotcut:skipConvert">1</property>
    <property name="xml">was here</property>
    <property name="shotcut:hash">98ce4a2ff555b294dd604bae21c252bb</property>
    <property name="meta.media.variable_frame_rate">1</property>
    <property name="meta.media.top_field_first">0</property>
    <property name="meta.media.progressive">1</property>
    <property name="ignore_points">1</property>
    <property name="shotcut:caption">clip3.mp4</property>
  </chain>
  <chain id="chain3" out="00:01:46.380">
    <property name="length">00:01:46.410</property>
    <property name="eof">pause</property>
    <property name="resource">zvuk.mp4</property>
    <property name="mlt_service">avformat-novalidate</property>
    <property name="meta.media.nb_streams">1</property>
    <property name="meta.media.0.stream.type">audio</property>
    <property name="meta.media.0.codec.sample_fmt">fltp</property>
    <property name="meta.media.0.codec.sample_rate">24000</property>
    <property name="meta.media.0.codec.channels">2</property>
    <property name="meta.media.0.codec.layout">stereo</property>
    <property name="meta.media.0.codec.name">aac</property>
    <property name="meta.media.0.codec.long_name">AAC (Advanced Audio Coding)</property>
    <property name="meta.media.0.codec.bit_rate">160000</property>
    <property name="meta.attr.0.stream.language.markup">eng</property>
    <property name="meta.attr.0.stream.handler_name.markup">SoundHandler</property>
    <property name="meta.attr.0.stream.vendor_id.markup">[0][0][0][0]</property>
    <property name="meta.attr.major_brand.markup">isom</property>
    <property name="meta.attr.minor_version.markup">512</property>
    <property name="meta.attr.compatible_brands.markup">isomiso2mp41</property>
    <property name="meta.attr.track.markup">0</property>
    <property name="meta.attr.date.markup">0</property>
    <property name="meta.attr.encoder.markup">Lavf58.44.100</property>
    <property name="seekable">1</property>
    <property name="audio_index">0</property>
    <property name="video_index">-1</property>
    <property name="creation_time">2024-06-09T19:56:41</property>
    <property name="astream">0</property>
    <property name="shotcut:skipConvert">1</property>
    <property name="xml">was here</property>
    <property name="shotcut:hash">fdfc926134931b3f8a56306d8d2b6b68</property>
    <property name="ignore_points">1</property>
    <property name="shotcut:caption">zvuk.mp4</property>
  </chain>
  <producer id="producer0" in="00:00:00.000" out="00:00:03.960">
    <property name="length">04:00:00.000</property>
    <property name="eof">pause</property>
    <property name="resource">#00000000</property>
    <property name="aspect_ratio">1</property>
    <property name="mlt_service">color</property>
    <property name="mlt_image_format">rgba</property>
    <property name="shotcut:caption">transparent</property>
    <property name="shotcut:detail">transparent</property>
    <property name="ignore_points">1</property>
    <property name="meta.shotcut.vui">1</property>
    <property name="xml">was here</property>
    <property name="seekable">1</property>
    <filter id="filter1" out="00:00:03.960">
      <property name="argument">Noa Martinović - Digitalni multimedij 1</property>
      <property name="geometry">0 776 405 75 1</property>
      <property name="family">Verdana</property>
      <property name="size">54</property>
      <property name="weight">400</property>
      <property name="style">italic</property>
      <property name="fgcolour">#ffffffff</property>
      <property name="bgcolour">#00000000</property>
      <property name="olcolour">#aa000000</property>
      <property name="pad">1</property>
      <property name="halign">left</property>
      <property name="valign">bottom</property>
      <property name="outline">0</property>
      <property name="opacity">1</property>
      <property name="mlt_service">dynamictext</property>
      <property name="shotcut:filter">dynamicText</property>
      <property name="shotcut:usePointSize">1</property>
      <property name="shotcut:pointSize">41</property>
    </filter>
  </producer>
  <producer id="producer1" in="00:00:00.000" out="00:00:03.960">
    <property name="length">04:00:00.000</property>
    <property name="eof">pause</property>
    <property name="resource">#00000000</property>
    <property name="aspect_ratio">1</property>
    <property name="mlt_service">color</property>
    <property name="mlt_image_format">rgba</property>
    <property name="shotcut:caption">transparent</property>
    <property name="shotcut:detail">transparent</property>
    <property name="ignore_points">1</property>
    <property name="meta.shotcut.vui">1</property>
    <property name="xml">was here</property>
    <property name="seekable">1</property>
    <filter id="filter2" out="00:00:03.960">
      <property name="argument">ZAGOR</property>
      <property name="geometry">0 638 405 169 1</property>
      <property name="family">Trebuchet MS</property>
      <property name="size">73</property>
      <property name="weight">700</property>
      <property name="style">normal</property>
      <property name="fgcolour">#ffffffff</property>
      <property name="bgcolour">#ffaa0000</property>
      <property name="olcolour">#aaaa0000</property>
      <property name="pad">1</property>
      <property name="halign">center</property>
      <property name="valign">middle</property>
      <property name="outline">2</property>
      <property name="opacity">1</property>
      <property name="mlt_service">dynamictext</property>
      <property name="shotcut:filter">dynamicText</property>
      <property name="shotcut:usePointSize">1</property>
      <property name="shotcut:pointSize">55</property>
    </filter>
    <filter id="filter3" out="00:00:03.960">
      <property name="start">1</property>
      <property name="level">00:00:02.970=1;00:00:03.960=0</property>
      <property name="mlt_service">brightness</property>
      <property name="shotcut:filter">fadeOutBrightness</property>
      <property name="alpha">1</property>
      <property name="shotcut:animOut">00:00:01.020</property>
    </filter>
  </producer>
  <playlist id="main_bin" title="Shotcut version 24.04.28">
    <property name="shotcut:projectAudioChannels">2</property>
    <property name="shotcut:projectFolder">1</property>
    <property name="xml_retain">1</property>
    <entry producer="chain0" in="00:00:00.000" out="00:00:08.730"/>
    <entry producer="chain1" in="00:00:07.740" out="00:00:29.040"/>
    <entry producer="chain2" in="00:00:21.930" out="00:00:44.310"/>
    <entry producer="chain3" in="00:00:00.000" out="00:01:46.380"/>
    <entry producer="producer0" in="00:00:00.000" out="00:00:03.960"/>
    <entry producer="producer1" in="00:00:00.000" out="00:00:03.960"/>
  </playlist>
  <producer id="black" in="00:00:00.000" out="00:00:54.150">
    <property name="length">00:00:54.180</property>
    <property name="eof">pause</property>
    <property name="resource">0</property>
    <property name="aspect_ratio">1</property>
    <property name="mlt_service">color</property>
    <property name="mlt_image_format">rgba</property>
    <property name="set.test_audio">0</property>
  </producer>
  <playlist id="background">
    <entry producer="black" in="00:00:00.000" out="00:00:54.150"/>
  </playlist>
  <chain id="chain4" out="00:00:08.730">
    <property name="length">00:00:08.760</property>
    <property name="eof">pause</property>
    <property name="resource">C:/Users/Noa/Desktop/projektni_dm/kinemagraf/kinemagraf.gif</property>
    <property name="mlt_service">avformat-novalidate</property>
    <property name="meta.media.nb_streams">1</property>
    <property name="meta.media.0.stream.type">video</property>
    <property name="meta.media.0.stream.frame_rate">33.3333</property>
    <property name="meta.media.0.stream.sample_aspect_ratio">0</property>
    <property name="meta.media.0.codec.width">478</property>
    <property name="meta.media.0.codec.height">850</property>
    <property name="meta.media.0.codec.rotate">0</property>
    <property name="meta.media.0.codec.pix_fmt">bgra</property>
    <property name="meta.media.0.codec.sample_aspect_ratio">1</property>
    <property name="meta.media.0.codec.colorspace">601</property>
    <property name="meta.media.0.codec.name">gif</property>
    <property name="meta.media.0.codec.long_name">GIF (Graphics Interchange Format)</property>
    <property name="meta.media.0.codec.bit_rate">0</property>
    <property name="seekable">1</property>
    <property name="meta.media.sample_aspect_num">64</property>
    <property name="meta.media.sample_aspect_den">64</property>
    <property name="audio_index">-1</property>
    <property name="video_index">0</property>
    <property name="creation_time">2024-06-10T08:58:24</property>
    <property name="vstream">0</property>
    <property name="meta.media.frame_rate_num">100</property>
    <property name="meta.media.frame_rate_den">3</property>
    <property name="meta.media.colorspace">601</property>
    <property name="meta.media.color_trc">2</property>
    <property name="meta.media.has_b_frames">0</property>
    <property name="meta.media.width">478</property>
    <property name="meta.media.height">850</property>
    <property name="meta.media.aspect_ratio">1</property>
    <property name="meta.media.color_range">mpeg</property>
    <property name="shotcut:skipConvert">1</property>
    <property name="xml">was here</property>
    <property name="shotcut:hash">f8d4e6a6767d2e83c17f0068dd1010e5</property>
    <property name="meta.media.variable_frame_rate">1</property>
    <property name="meta.media.top_field_first">0</property>
    <property name="meta.media.progressive">1</property>
    <property name="shotcut:caption">kinemagraf.gif</property>
    <property name="meta.shotcut.vui">1</property>
    <filter id="filter4" out="00:00:08.730">
      <property name="background">color:#00000000</property>
      <property name="mlt_service">affine</property>
      <property name="shotcut:filter">affineSizePosition</property>
      <property name="transition.fix_rotate_x">00:00:00.000=0;00:00:00.960=0</property>
      <property name="transition.fill">0</property>
      <property name="transition.distort">0</property>
      <property name="transition.rect">00:00:00.000=-478 0 478 850 1;00:00:00.960=0 0 478 850 1</property>
      <property name="transition.valign">middle</property>
      <property name="transition.halign">center</property>
      <property name="shotcut:animIn">00:00:00.990</property>
      <property name="shotcut:animOut">00:00:00.000</property>
      <property name="transition.threads">0</property>
    </filter>
    <filter id="filter5" out="00:00:08.730">
      <property name="start">1</property>
      <property name="level">00:00:00.000=0;00:00:00.990=1</property>
      <property name="mlt_service">brightness</property>
      <property name="shotcut:filter">fadeInBrightness</property>
      <property name="alpha">1</property>
      <property name="shotcut:animIn">00:00:01.020</property>
    </filter>
  </chain>
  <playlist id="playlist0">
    <property name="shotcut:video">1</property>
    <property name="shotcut:name">kinemagraf</property>
    <entry producer="chain4" in="00:00:00.000" out="00:00:08.730"/>
  </playlist>
  <chain id="chain5" out="00:00:36.900">
    <property name="length">00:00:36.930</property>
    <property name="eof">pause</property>
    <property name="resource">clip2.mp4</property>
    <property name="mlt_service">avformat-novalidate</property>
    <property name="meta.media.nb_streams">2</property>
    <property name="meta.media.0.stream.type">video</property>
    <property name="meta.media.0.stream.frame_rate">30.3031</property>
    <property name="meta.media.0.stream.sample_aspect_ratio">1</property>
    <property name="meta.media.0.codec.width">478</property>
    <property name="meta.media.0.codec.height">850</property>
    <property name="meta.media.0.codec.rotate">0</property>
    <property name="meta.media.0.codec.pix_fmt">yuv420p</property>
    <property name="meta.media.0.codec.sample_aspect_ratio">0</property>
    <property name="meta.media.0.codec.colorspace">601</property>
    <property name="meta.media.0.codec.color_trc">6</property>
    <property name="meta.media.0.codec.name">h264</property>
    <property name="meta.media.0.codec.long_name">H.264 / AVC / MPEG-4 AVC / MPEG-4 part 10</property>
    <property name="meta.media.0.codec.bit_rate">1270462</property>
    <property name="meta.attr.0.stream.vendor_id.markup">[0][0][0][0]</property>
    <property name="meta.media.1.stream.type">audio</property>
    <property name="meta.media.1.codec.sample_fmt">fltp</property>
    <property name="meta.media.1.codec.sample_rate">48000</property>
    <property name="meta.media.1.codec.channels">2</property>
    <property name="meta.media.1.codec.layout">stereo</property>
    <property name="meta.media.1.codec.name">aac</property>
    <property name="meta.media.1.codec.long_name">AAC (Advanced Audio Coding)</property>
    <property name="meta.media.1.codec.bit_rate">96000</property>
    <property name="meta.attr.1.stream.vendor_id.markup">[0][0][0][0]</property>
    <property name="meta.attr.major_brand.markup">mp42</property>
    <property name="meta.attr.minor_version.markup">0</property>
    <property name="meta.attr.compatible_brands.markup">mp42isom</property>
    <property name="seekable">1</property>
    <property name="meta.media.sample_aspect_num">1</property>
    <property name="meta.media.sample_aspect_den">1</property>
    <property name="audio_index">-1</property>
    <property name="video_index">0</property>
    <property name="creation_time">2024-06-09T19:22:13</property>
    <property name="vstream">0</property>
    <property name="meta.media.frame_rate_num">50355000</property>
    <property name="meta.media.frame_rate_den">1661713</property>
    <property name="meta.media.colorspace">601</property>
    <property name="meta.media.color_trc">6</property>
    <property name="meta.media.has_b_frames">0</property>
    <property name="meta.media.width">478</property>
    <property name="meta.media.height">850</property>
    <property name="meta.media.aspect_ratio">1</property>
    <property name="meta.media.color_range">mpeg</property>
    <property name="astream">-1</property>
    <property name="shotcut:skipConvert">1</property>
    <property name="xml">was here</property>
    <property name="shotcut:hash">bc0349ec00ab43827700f9253ce37756</property>
    <property name="meta.media.variable_frame_rate">1</property>
    <property name="meta.media.top_field_first">0</property>
    <property name="meta.media.progressive">1</property>
    <property name="ignore_points">0</property>
    <property name="shotcut:caption">clip2.mp4</property>
    <property name="shotcut:defaultAudioIndex">1</property>
    <filter id="filter6" in="00:00:07.740" out="00:00:09.840">
      <property name="start">1</property>
      <property name="level">1</property>
      <property name="mlt_service">brightness</property>
      <property name="shotcut:filter">brightnessOpacity</property>
      <property name="alpha">00:00:00.000=0;00:00:02.130=0.596639</property>
      <property name="opacity">00:00:00.000=0;00:00:02.130=0.596639</property>
      <property name="shotcut:animIn">0</property>
      <property name="shotcut:animOut">0</property>
    </filter>
    <filter id="filter7" in="00:00:07.740" out="00:00:09.840">
      <property name="start">1</property>
      <property name="level">00:00:00.000=0;00:00:00.990=1</property>
      <property name="mlt_service">brightness</property>
      <property name="shotcut:filter">fadeInBrightness</property>
      <property name="alpha">1</property>
      <property name="shotcut:animIn">00:00:01.020</property>
      <property name="disable">0</property>
      <property name="shotcut:animOut">0</property>
    </filter>
  </chain>
  <producer id="producer2" in="00:00:00.000" out="00:01:13.830">
    <property name="length">00:01:13.860</property>
    <property name="eof">pause</property>
    <property name="resource">0.5:clip2.mp4</property>
    <property name="aspect_ratio">1</property>
    <property name="meta.media.nb_streams">2</property>
    <property name="meta.media.0.stream.type">video</property>
    <property name="meta.media.0.stream.frame_rate">30.3031</property>
    <property name="meta.media.0.stream.sample_aspect_ratio">1</property>
    <property name="meta.media.0.codec.width">478</property>
    <property name="meta.media.0.codec.height">850</property>
    <property name="meta.media.0.codec.rotate">0</property>
    <property name="meta.media.0.codec.pix_fmt">yuv420p</property>
    <property name="meta.media.0.codec.sample_aspect_ratio">0</property>
    <property name="meta.media.0.codec.colorspace">601</property>
    <property name="meta.media.0.codec.color_trc">6</property>
    <property name="meta.media.0.codec.name">h264</property>
    <property name="meta.media.0.codec.long_name">H.264 / AVC / MPEG-4 AVC / MPEG-4 part 10</property>
    <property name="meta.media.0.codec.bit_rate">1270462</property>
    <property name="meta.attr.0.stream.vendor_id.markup">[0][0][0][0]</property>
    <property name="meta.media.1.stream.type">audio</property>
    <property name="meta.media.1.codec.sample_fmt">fltp</property>
    <property name="meta.media.1.codec.sample_rate">48000</property>
    <property name="meta.media.1.codec.channels">2</property>
    <property name="meta.media.1.codec.layout">stereo</property>
    <property name="meta.media.1.codec.name">aac</property>
    <property name="meta.media.1.codec.long_name">AAC (Advanced Audio Coding)</property>
    <property name="meta.media.1.codec.bit_rate">96000</property>
    <property name="meta.attr.1.stream.vendor_id.markup">[0][0][0][0]</property>
    <property name="meta.attr.major_brand.markup">mp42</property>
    <property name="meta.attr.minor_version.markup">0</property>
    <property name="meta.attr.compatible_brands.markup">mp42isom</property>
    <property name="seekable">1</property>
    <property name="meta.media.sample_aspect_num">1</property>
    <property name="meta.media.sample_aspect_den">1</property>
    <property name="audio_index">-1</property>
    <property name="video_index">0</property>
    <property name="warp_speed">0.5</property>
    <property name="warp_resource">clip2.mp4</property>
    <property name="mlt_service">timewarp</property>
    <property name="shotcut:producer">avformat</property>
    <property name="video_delay">0</property>
    <property name="astream">-1</property>
    <property name="vstream">0</property>
    <property name="shotcut:hash">bc0349ec00ab43827700f9253ce37756</property>
    <property name="shotcut:skipConvert">1</property>
    <property name="shotcut:caption">clip2.mp4 (0.5x)</property>
    <property name="xml">was here</property>
    <property name="meta.media.frame_rate_num">50355000</property>
    <property name="meta.media.frame_rate_den">1661713</property>
    <property name="meta.media.colorspace">601</property>
    <property name="meta.media.color_trc">6</property>
    <property name="meta.media.has_b_frames">0</property>
    <property name="meta.media.width">478</property>
    <property name="meta.media.height">850</property>
    <property name="meta.media.aspect_ratio">1</property>
    <property name="meta.media.color_range">mpeg</property>
    <property name="meta.media.variable_frame_rate">1</property>
    <property name="meta.media.top_field_first">0</property>
    <property name="meta.media.progressive">1</property>
    <property name="shotcut:defaultAudioIndex">1</property>
    <filter id="filter8" in="00:00:19.740" out="00:00:30.180">
      <property name="start">1</property>
      <property name="level">1</property>
      <property name="mlt_service">brightness</property>
      <property name="shotcut:filter">brightnessOpacity</property>
      <property name="alpha">00:00:00.000=0.596639;00:00:01.440=1</property>
      <property name="opacity">00:00:00.000=0.596639;00:00:01.440=1</property>
      <property name="shotcut:animIn">0</property>
      <property name="shotcut:animOut">0</property>
    </filter>
    <filter id="filter9" in="00:00:19.740" out="00:00:30.180">
      <property name="lift_r">0</property>
      <property name="lift_g">0</property>
      <property name="lift_b">0</property>
      <property name="gamma_r">0.67</property>
      <property name="gamma_g">0.67</property>
      <property name="gamma_b">0.67</property>
      <property name="gain_r">1.33</property>
      <property name="gain_g">1.33</property>
      <property name="gain_b">1.33</property>
      <property name="mlt_service">lift_gamma_gain</property>
      <property name="shotcut:filter">contrast</property>
    </filter>
  </producer>
  <chain id="chain6" out="00:00:36.900">
    <property name="length">00:00:36.930</property>
    <property name="eof">pause</property>
    <property name="resource">clip2.mp4</property>
    <property name="mlt_service">avformat-novalidate</property>
    <property name="meta.media.nb_streams">2</property>
    <property name="meta.media.0.stream.type">video</property>
    <property name="meta.media.0.stream.frame_rate">30.3031</property>
    <property name="meta.media.0.stream.sample_aspect_ratio">1</property>
    <property name="meta.media.0.codec.width">478</property>
    <property name="meta.media.0.codec.height">850</property>
    <property name="meta.media.0.codec.rotate">0</property>
    <property name="meta.media.0.codec.pix_fmt">yuv420p</property>
    <property name="meta.media.0.codec.sample_aspect_ratio">0</property>
    <property name="meta.media.0.codec.colorspace">601</property>
    <property name="meta.media.0.codec.color_trc">6</property>
    <property name="meta.media.0.codec.name">h264</property>
    <property name="meta.media.0.codec.long_name">H.264 / AVC / MPEG-4 AVC / MPEG-4 part 10</property>
    <property name="meta.media.0.codec.bit_rate">1270462</property>
    <property name="meta.attr.0.stream.vendor_id.markup">[0][0][0][0]</property>
    <property name="meta.media.1.stream.type">audio</property>
    <property name="meta.media.1.codec.sample_fmt">fltp</property>
    <property name="meta.media.1.codec.sample_rate">48000</property>
    <property name="meta.media.1.codec.channels">2</property>
    <property name="meta.media.1.codec.layout">stereo</property>
    <property name="meta.media.1.codec.name">aac</property>
    <property name="meta.media.1.codec.long_name">AAC (Advanced Audio Coding)</property>
    <property name="meta.media.1.codec.bit_rate">96000</property>
    <property name="meta.attr.1.stream.vendor_id.markup">[0][0][0][0]</property>
    <property name="meta.attr.major_brand.markup">mp42</property>
    <property name="meta.attr.minor_version.markup">0</property>
    <property name="meta.attr.compatible_brands.markup">mp42isom</property>
    <property name="seekable">1</property>
    <property name="meta.media.sample_aspect_num">1</property>
    <property name="meta.media.sample_aspect_den">1</property>
    <property name="audio_index">-1</property>
    <property name="video_index">0</property>
    <property name="creation_time">2024-06-09T19:22:13</property>
    <property name="vstream">0</property>
    <property name="meta.media.frame_rate_num">50355000</property>
    <property name="meta.media.frame_rate_den">1661713</property>
    <property name="meta.media.colorspace">601</property>
    <property name="meta.media.color_trc">6</property>
    <property name="meta.media.has_b_frames">0</property>
    <property name="meta.media.width">478</property>
    <property name="meta.media.height">850</property>
    <property name="meta.media.aspect_ratio">1</property>
    <property name="meta.media.color_range">mpeg</property>
    <property name="astream">-1</property>
    <property name="shotcut:skipConvert">1</property>
    <property name="xml">was here</property>
    <property name="shotcut:hash">bc0349ec00ab43827700f9253ce37756</property>
    <property name="meta.media.variable_frame_rate">1</property>
    <property name="meta.media.top_field_first">0</property>
    <property name="meta.media.progressive">1</property>
    <property name="ignore_points">0</property>
    <property name="shotcut:caption">clip2.mp4</property>
    <property name="shotcut:defaultAudioIndex">1</property>
    <filter id="filter10" in="00:00:15.120" out="00:00:22.050">
      <property name="start">1</property>
      <property name="level">1</property>
      <property name="mlt_service">brightness</property>
      <property name="shotcut:filter">brightnessOpacity</property>
      <property name="alpha">00:00:00.000=1</property>
      <property name="opacity">00:00:00.000=1</property>
      <property name="shotcut:animIn">0</property>
      <property name="shotcut:animOut">0</property>
    </filter>
  </chain>
  <chain id="chain7" out="00:00:36.900">
    <property name="length">00:00:36.930</property>
    <property name="eof">pause</property>
    <property name="resource">clip2.mp4</property>
    <property name="mlt_service">avformat-novalidate</property>
    <property name="meta.media.nb_streams">2</property>
    <property name="meta.media.0.stream.type">video</property>
    <property name="meta.media.0.stream.frame_rate">30.3031</property>
    <property name="meta.media.0.stream.sample_aspect_ratio">1</property>
    <property name="meta.media.0.codec.width">478</property>
    <property name="meta.media.0.codec.height">850</property>
    <property name="meta.media.0.codec.rotate">0</property>
    <property name="meta.media.0.codec.pix_fmt">yuv420p</property>
    <property name="meta.media.0.codec.sample_aspect_ratio">0</property>
    <property name="meta.media.0.codec.colorspace">601</property>
    <property name="meta.media.0.codec.color_trc">6</property>
    <property name="meta.media.0.codec.name">h264</property>
    <property name="meta.media.0.codec.long_name">H.264 / AVC / MPEG-4 AVC / MPEG-4 part 10</property>
    <property name="meta.media.0.codec.bit_rate">1270462</property>
    <property name="meta.attr.0.stream.vendor_id.markup">[0][0][0][0]</property>
    <property name="meta.media.1.stream.type">audio</property>
    <property name="meta.media.1.codec.sample_fmt">fltp</property>
    <property name="meta.media.1.codec.sample_rate">48000</property>
    <property name="meta.media.1.codec.channels">2</property>
    <property name="meta.media.1.codec.layout">stereo</property>
    <property name="meta.media.1.codec.name">aac</property>
    <property name="meta.media.1.codec.long_name">AAC (Advanced Audio Coding)</property>
    <property name="meta.media.1.codec.bit_rate">96000</property>
    <property name="meta.attr.1.stream.vendor_id.markup">[0][0][0][0]</property>
    <property name="meta.attr.major_brand.markup">mp42</property>
    <property name="meta.attr.minor_version.markup">0</property>
    <property name="meta.attr.compatible_brands.markup">mp42isom</property>
    <property name="seekable">1</property>
    <property name="meta.media.sample_aspect_num">1</property>
    <property name="meta.media.sample_aspect_den">1</property>
    <property name="audio_index">-1</property>
    <property name="video_index">0</property>
    <property name="creation_time">2024-06-09T19:22:13</property>
    <property name="vstream">0</property>
    <property name="meta.media.frame_rate_num">50355000</property>
    <property name="meta.media.frame_rate_den">1661713</property>
    <property name="meta.media.colorspace">601</property>
    <property name="meta.media.color_trc">6</property>
    <property name="meta.media.has_b_frames">0</property>
    <property name="meta.media.width">478</property>
    <property name="meta.media.height">850</property>
    <property name="meta.media.aspect_ratio">1</property>
    <property name="meta.media.color_range">mpeg</property>
    <property name="astream">-1</property>
    <property name="shotcut:skipConvert">1</property>
    <property name="xml">was here</property>
    <property name="shotcut:hash">bc0349ec00ab43827700f9253ce37756</property>
    <property name="meta.media.variable_frame_rate">1</property>
    <property name="meta.media.top_field_first">0</property>
    <property name="meta.media.progressive">1</property>
    <property name="ignore_points">0</property>
    <property name="shotcut:caption">clip2.mp4</property>
    <property name="meta.shotcut.vui">1</property>
    <property name="shotcut:defaultAudioIndex">1</property>
    <filter id="filter11" in="00:00:22.080" out="00:00:29.040">
      <property name="start">1</property>
      <property name="level">1</property>
      <property name="mlt_service">brightness</property>
      <property name="shotcut:filter">brightnessOpacity</property>
      <property name="alpha">00:00:00.000=1</property>
      <property name="opacity">00:00:00.000=1</property>
      <property name="shotcut:animIn">0</property>
      <property name="shotcut:animOut">0</property>
    </filter>
    <filter id="filter12" in="00:00:22.080" out="00:00:29.040">
      <property name="version">0.3</property>
      <property name="mlt_service">frei0r.saturat0r</property>
      <property name="threads">0</property>
      <property name="0">0</property>
    </filter>
    <filter id="filter13" in="00:00:22.080" out="00:00:29.040">
      <property name="background">color:#00000000</property>
      <property name="mlt_service">affine</property>
      <property name="shotcut:filter">affineSizePosition</property>
      <property name="transition.fix_rotate_x">00:00:03.120=0;00:00:06.900=360</property>
      <property name="transition.fill">1</property>
      <property name="transition.distort">0</property>
      <property name="transition.rect">0 0 478 850 1</property>
      <property name="transition.valign">middle</property>
      <property name="transition.halign">center</property>
      <property name="shotcut:animIn">00:00:00.000</property>
      <property name="shotcut:animOut">00:00:00.000</property>
      <property name="transition.threads">0</property>
    </filter>
  </chain>
  <playlist id="playlist1">
    <property name="shotcut:video">1</property>
    <property name="shotcut:name">clip2</property>
    <blank length="00:00:06.630"/>
    <entry producer="chain5" in="00:00:07.740" out="00:00:09.840"/>
    <entry producer="producer2" in="00:00:19.740" out="00:00:30.180"/>
    <entry producer="chain6" in="00:00:15.120" out="00:00:22.050"/>
    <entry producer="chain7" in="00:00:22.080" out="00:00:29.040"/>
  </playlist>
  <chain id="chain8" out="00:00:49.410">
    <property name="length">00:00:49.440</property>
    <property name="eof">pause</property>
    <property name="resource">clip3.mp4</property>
    <property name="mlt_service">avformat-novalidate</property>
    <property name="meta.media.nb_streams">2</property>
    <property name="meta.media.0.stream.type">video</property>
    <property name="meta.media.0.stream.frame_rate">30.3034</property>
    <property name="meta.media.0.stream.sample_aspect_ratio">1</property>
    <property name="meta.media.0.codec.width">478</property>
    <property name="meta.media.0.codec.height">850</property>
    <property name="meta.media.0.codec.rotate">0</property>
    <property name="meta.media.0.codec.pix_fmt">yuv420p</property>
    <property name="meta.media.0.codec.sample_aspect_ratio">0</property>
    <property name="meta.media.0.codec.colorspace">601</property>
    <property name="meta.media.0.codec.color_trc">6</property>
    <property name="meta.media.0.codec.name">h264</property>
    <property name="meta.media.0.codec.long_name">H.264 / AVC / MPEG-4 AVC / MPEG-4 part 10</property>
    <property name="meta.media.0.codec.bit_rate">1274437</property>
    <property name="meta.attr.0.stream.vendor_id.markup">[0][0][0][0]</property>
    <property name="meta.media.1.stream.type">audio</property>
    <property name="meta.media.1.codec.sample_fmt">fltp</property>
    <property name="meta.media.1.codec.sample_rate">48000</property>
    <property name="meta.media.1.codec.channels">2</property>
    <property name="meta.media.1.codec.layout">stereo</property>
    <property name="meta.media.1.codec.name">aac</property>
    <property name="meta.media.1.codec.long_name">AAC (Advanced Audio Coding)</property>
    <property name="meta.media.1.codec.bit_rate">96000</property>
    <property name="meta.attr.1.stream.vendor_id.markup">[0][0][0][0]</property>
    <property name="meta.attr.major_brand.markup">mp42</property>
    <property name="meta.attr.minor_version.markup">0</property>
    <property name="meta.attr.compatible_brands.markup">mp42isom</property>
    <property name="seekable">1</property>
    <property name="meta.media.sample_aspect_num">1</property>
    <property name="meta.media.sample_aspect_den">1</property>
    <property name="audio_index">-1</property>
    <property name="video_index">0</property>
    <property name="creation_time">2024-06-09T19:21:09</property>
    <property name="vstream">0</property>
    <property name="meta.media.frame_rate_num">8426250</property>
    <property name="meta.media.frame_rate_den">278063</property>
    <property name="meta.media.colorspace">601</property>
    <property name="meta.media.color_trc">6</property>
    <property name="meta.media.has_b_frames">0</property>
    <property name="meta.media.width">478</property>
    <property name="meta.media.height">850</property>
    <property name="meta.media.aspect_ratio">1</property>
    <property name="meta.media.color_range">mpeg</property>
    <property name="astream">-1</property>
    <property name="shotcut:skipConvert">1</property>
    <property name="xml">was here</property>
    <property name="shotcut:hash">98ce4a2ff555b294dd604bae21c252bb</property>
    <property name="meta.media.variable_frame_rate">1</property>
    <property name="meta.media.top_field_first">0</property>
    <property name="meta.media.progressive">1</property>
    <property name="ignore_points">0</property>
    <property name="shotcut:caption">clip3.mp4</property>
    <property name="shotcut:defaultAudioIndex">1</property>
    <property name="meta.shotcut.vui">1</property>
    <filter id="filter14" in="00:00:21.930" out="00:00:44.310">
      <property name="start">1</property>
      <property name="level">1</property>
      <property name="mlt_service">brightness</property>
      <property name="shotcut:filter">brightnessOpacity</property>
      <property name="alpha">00:00:00.030=0;00:00:05.460=1</property>
      <property name="opacity">00:00:00.030=0;00:00:05.460=1</property>
    </filter>
    <filter id="filter15" in="00:00:21.930" out="00:00:44.310">
      <property name="lift_r">0</property>
      <property name="lift_g">0</property>
      <property name="lift_b">0</property>
      <property name="gamma_r">0.618</property>
      <property name="gamma_g">0.618</property>
      <property name="gamma_b">0.618</property>
      <property name="gain_r">1.382</property>
      <property name="gain_g">1.382</property>
      <property name="gain_b">1.382</property>
      <property name="mlt_service">lift_gamma_gain</property>
      <property name="shotcut:filter">contrast</property>
    </filter>
    <filter id="filter16" in="00:00:21.930" out="00:00:44.310">
      <property name="background">color:#00000000</property>
      <property name="mlt_service">affine</property>
      <property name="shotcut:filter">affineSizePosition</property>
      <property name="transition.fix_rotate_x">00:00:17.010=0;00:00:21.480=360</property>
      <property name="transition.fill">1</property>
      <property name="transition.distort">0</property>
      <property name="transition.rect">0 0 478 850 1</property>
      <property name="transition.valign">middle</property>
      <property name="transition.halign">center</property>
      <property name="shotcut:animIn">00:00:00.000</property>
      <property name="shotcut:animOut">00:00:00.000</property>
      <property name="transition.threads">0</property>
    </filter>
    <filter id="filter17" in="00:00:21.930" out="00:00:44.310">
      <property name="background">color:#00000000</property>
      <property name="mlt_service">affine</property>
      <property name="shotcut:filter">affineSizePosition</property>
      <property name="transition.fix_rotate_x">00:00:21.420=0;00:00:22.380=0</property>
      <property name="transition.fill">0</property>
      <property name="transition.distort">0</property>
      <property name="transition.rect">00:00:21.420=0 0 478 850 1;00:00:22.380=478 0 478 850 1</property>
      <property name="transition.valign">middle</property>
      <property name="transition.halign">center</property>
      <property name="shotcut:animIn">00:00:00.000</property>
      <property name="shotcut:animOut">00:00:00.990</property>
      <property name="transition.threads">0</property>
    </filter>
    <filter id="filter18" in="00:00:21.930" out="00:00:44.310">
      <property name="start">1</property>
      <property name="level">00:00:21.390=1;00:00:22.380=0</property>
      <property name="mlt_service">brightness</property>
      <property name="shotcut:filter">fadeOutBrightness</property>
      <property name="alpha">1</property>
      <property name="shotcut:animOut">00:00:01.020</property>
    </filter>
  </chain>
  <playlist id="playlist2">
    <property name="shotcut:video">1</property>
    <property name="shotcut:name">clip3</property>
    <blank length="00:00:31.740"/>
    <entry producer="chain8" in="00:00:21.930" out="00:00:44.310"/>
  </playlist>
  <chain id="chain9" out="00:01:46.380">
    <property name="length">00:01:46.410</property>
    <property name="eof">pause</property>
    <property name="resource">zvuk.mp4</property>
    <property name="mlt_service">avformat-novalidate</property>
    <property name="meta.media.nb_streams">1</property>
    <property name="meta.media.0.stream.type">audio</property>
    <property name="meta.media.0.codec.sample_fmt">fltp</property>
    <property name="meta.media.0.codec.sample_rate">24000</property>
    <property name="meta.media.0.codec.channels">2</property>
    <property name="meta.media.0.codec.layout">stereo</property>
    <property name="meta.media.0.codec.name">aac</property>
    <property name="meta.media.0.codec.long_name">AAC (Advanced Audio Coding)</property>
    <property name="meta.media.0.codec.bit_rate">160000</property>
    <property name="meta.attr.0.stream.language.markup">eng</property>
    <property name="meta.attr.0.stream.handler_name.markup">SoundHandler</property>
    <property name="meta.attr.0.stream.vendor_id.markup">[0][0][0][0]</property>
    <property name="meta.attr.major_brand.markup">isom</property>
    <property name="meta.attr.minor_version.markup">512</property>
    <property name="meta.attr.compatible_brands.markup">isomiso2mp41</property>
    <property name="meta.attr.track.markup">0</property>
    <property name="meta.attr.date.markup">0</property>
    <property name="meta.attr.encoder.markup">Lavf58.44.100</property>
    <property name="seekable">1</property>
    <property name="audio_index">0</property>
    <property name="video_index">-1</property>
    <property name="creation_time">2024-06-09T19:56:41</property>
    <property name="astream">0</property>
    <property name="shotcut:skipConvert">1</property>
    <property name="xml">was here</property>
    <property name="shotcut:hash">fdfc926134931b3f8a56306d8d2b6b68</property>
    <property name="ignore_points">0</property>
    <property name="shotcut:caption">zvuk.mp4</property>
    <filter id="filter19" out="00:00:54.150">
      <property name="window">75</property>
      <property name="max_gain">20dB</property>
      <property name="level">00:00:00.000=-60;00:00:00.990=0</property>
      <property name="mlt_service">volume</property>
      <property name="shotcut:filter">fadeInVolume</property>
      <property name="shotcut:animIn">00:00:01.020</property>
    </filter>
    <filter id="filter20" out="00:00:54.150">
      <property name="window">75</property>
      <property name="max_gain">20dB</property>
      <property name="level">00:00:53.160=0;00:00:54.150=-60</property>
      <property name="mlt_service">volume</property>
      <property name="shotcut:filter">fadeOutVolume</property>
      <property name="shotcut:animOut">00:00:01.020</property>
    </filter>
  </chain>
  <playlist id="playlist3">
    <property name="shotcut:audio">1</property>
    <property name="shotcut:name">zvuk</property>
    <entry producer="chain9" in="00:00:00.000" out="00:00:54.150"/>
  </playlist>
  <producer id="producer3" in="00:00:00.000" out="03:59:59.970">
    <property name="length">04:00:00.000</property>
    <property name="eof">pause</property>
    <property name="resource">#00000000</property>
    <property name="aspect_ratio">1</property>
    <property name="mlt_service">color</property>
    <property name="mlt_image_format">rgba</property>
    <property name="shotcut:caption">transparent</property>
    <property name="shotcut:detail">transparent</property>
    <property name="ignore_points">0</property>
    <property name="meta.shotcut.vui">1</property>
    <property name="xml">was here</property>
    <property name="seekable">1</property>
    <filter id="filter21" out="00:00:54.120">
      <property name="argument">Noa Martinović - Digitalni multimedij 1</property>
      <property name="geometry">0 794 405 57 1</property>
      <property name="family">Verdana</property>
      <property name="size">54</property>
      <property name="weight">400</property>
      <property name="style">italic</property>
      <property name="fgcolour">#ffffffff</property>
      <property name="bgcolour">#00000000</property>
      <property name="olcolour">#aa000000</property>
      <property name="pad">1</property>
      <property name="halign">left</property>
      <property name="valign">bottom</property>
      <property name="outline">0</property>
      <property name="opacity">1</property>
      <property name="mlt_service">dynamictext</property>
      <property name="shotcut:filter">dynamicText</property>
      <property name="shotcut:usePointSize">1</property>
      <property name="shotcut:pointSize">41</property>
      <property name="shotcut:animIn">0</property>
      <property name="shotcut:animOut">0</property>
    </filter>
  </producer>
  <playlist id="playlist4">
    <property name="shotcut:video">1</property>
    <property name="shotcut:name">statični tekst</property>
    <entry producer="producer3" in="00:00:00.000" out="00:00:54.120"/>
  </playlist>
  <producer id="producer4" in="00:00:00.000" out="03:59:59.970">
    <property name="length">04:00:00.000</property>
    <property name="eof">pause</property>
    <property name="resource">#00000000</property>
    <property name="aspect_ratio">1</property>
    <property name="mlt_service">color</property>
    <property name="mlt_image_format">rgba</property>
    <property name="shotcut:caption">transparent</property>
    <property name="shotcut:detail">transparent</property>
    <property name="ignore_points">0</property>
    <property name="meta.shotcut.vui">1</property>
    <property name="xml">was here</property>
    <property name="seekable">1</property>
    <filter id="filter22" out="00:00:08.730">
      <property name="argument">ZAGOR</property>
      <property name="geometry">0 638 405 169 1</property>
      <property name="family">Trebuchet MS</property>
      <property name="size">73</property>
      <property name="weight">700</property>
      <property name="style">normal</property>
      <property name="fgcolour">#ffffffff</property>
      <property name="bgcolour">#ffaa0000</property>
      <property name="olcolour">#aa000000</property>
      <property name="pad">0</property>
      <property name="halign">center</property>
      <property name="valign">middle</property>
      <property name="outline">2</property>
      <property name="opacity">1</property>
      <property name="mlt_service">dynamictext</property>
      <property name="shotcut:filter">dynamicText</property>
      <property name="shotcut:usePointSize">1</property>
      <property name="shotcut:pointSize">55</property>
    </filter>
    <filter id="filter23" out="00:00:08.730">
      <property name="background">color:#00000000</property>
      <property name="mlt_service">affine</property>
      <property name="shotcut:filter">affineSizePosition</property>
      <property name="transition.fix_rotate_x">00:00:00.000=0;00:00:00.960=0</property>
      <property name="transition.fill">0</property>
      <property name="transition.distort">0</property>
      <property name="transition.rect">00:00:00.000=0 -850 478 850 1;00:00:00.960=0 0 478 850 1</property>
      <property name="transition.valign">middle</property>
      <property name="transition.halign">center</property>
      <property name="shotcut:animIn">00:00:00.990</property>
      <property name="shotcut:animOut">00:00:00.000</property>
      <property name="transition.threads">0</property>
    </filter>
    <filter id="filter24" out="00:00:08.730">
      <property name="mlt_service">avfilter.hue</property>
      <property name="av.h">-2</property>
      <property name="av.b">00:00:00.000=-0.6;00:00:07.350=-0.3;00:00:08.640=-10;00:00:08.730=-10</property>
      <property name="av.s">00:00:07.350=0.99;00:00:08.640=0</property>
    </filter>
  </producer>
  <playlist id="playlist5">
    <property name="shotcut:video">1</property>
    <property name="shotcut:name">animirani tekst</property>
    <entry producer="producer4" in="00:00:00.000" out="00:00:08.730"/>
  </playlist>
  <tractor id="tractor0" title="Shotcut version 24.04.28" in="00:00:00.000" out="00:00:54.150">
    <property name="shotcut">1</property>
    <property name="shotcut:projectAudioChannels">2</property>
    <property name="shotcut:projectFolder">1</property>
    <property name="shotcut:scaleFactor">0.448976</property>
    <track producer="background"/>
    <track producer="playlist0"/>
    <track producer="playlist1"/>
    <track producer="playlist2"/>
    <track producer="playlist3" hide="video"/>
    <track producer="playlist4"/>
    <track producer="playlist5"/>
    <transition id="transition0">
      <property name="a_track">0</property>
      <property name="b_track">1</property>
      <property name="mlt_service">mix</property>
      <property name="always_active">1</property>
      <property name="sum">1</property>
    </transition>
    <transition id="transition1">
      <property name="a_track">0</property>
      <property name="b_track">1</property>
      <property name="version">0.1</property>
      <property name="mlt_service">frei0r.cairoblend</property>
      <property name="threads">0</property>
      <property name="disable">1</property>
    </transition>
    <transition id="transition2">
      <property name="a_track">0</property>
      <property name="b_track">2</property>
      <property name="mlt_service">mix</property>
      <property name="always_active">1</property>
      <property name="sum">1</property>
    </transition>
    <transition id="transition3">
      <property name="a_track">1</property>
      <property name="b_track">2</property>
      <property name="version">0.1</property>
      <property name="mlt_service">frei0r.cairoblend</property>
      <property name="threads">0</property>
      <property name="disable">0</property>
    </transition>
    <transition id="transition4">
      <property name="a_track">0</property>
      <property name="b_track">3</property>
      <property name="mlt_service">mix</property>
      <property name="always_active">1</property>
      <property name="sum">1</property>
    </transition>
    <transition id="transition5">
      <property name="a_track">1</property>
      <property name="b_track">3</property>
      <property name="version">0.1</property>
      <property name="mlt_service">frei0r.cairoblend</property>
      <property name="threads">0</property>
      <property name="disable">0</property>
    </transition>
    <transition id="transition6">
      <property name="a_track">0</property>
      <property name="b_track">4</property>
      <property name="mlt_service">mix</property>
      <property name="always_active">1</property>
      <property name="sum">1</property>
    </transition>
    <transition id="transition7">
      <property name="a_track">0</property>
      <property name="b_track">5</property>
      <property name="mlt_service">mix</property>
      <property name="always_active">1</property>
      <property name="sum">1</property>
    </transition>
    <transition id="transition8">
      <property name="a_track">1</property>
      <property name="b_track">5</property>
      <property name="version">0.1</property>
      <property name="mlt_service">frei0r.cairoblend</property>
      <property name="threads">0</property>
      <property name="disable">0</property>
    </transition>
    <transition id="transition9">
      <property name="a_track">0</property>
      <property name="b_track">6</property>
      <property name="mlt_service">mix</property>
      <property name="always_active">1</property>
      <property name="sum">1</property>
    </transition>
    <transition id="transition10">
      <property name="a_track">1</property>
      <property name="b_track">6</property>
      <property name="version">0.1</property>
      <property name="mlt_service">frei0r.cairoblend</property>
      <property name="threads">0</property>
      <property name="disable">0</property>
    </transition>
  </tractor>
</mlt>
